<?xml version="1.0" encoding="iso-8859-1"?>
<!-- Uploaded to: SVG Repo, www.svgrepo.com, Generator: SVG Repo Mixer Tools -->
<svg height="800px" width="800px" version="1.1" id="Layer_1" xmlns="http://www.w3.org/2000/svg" xmlns:xlink="http://www.w3.org/1999/xlink" 
	 viewBox="0 0 512 512" xml:space="preserve">
<path style="fill:#6AC8B7;" d="M298.031,224.543L175.061,98.007c-2.602-2.676-6.65-3.329-9.96-1.607l-44.979,23.397
	c-4.08,2.122-5.722,7.312-3.597,11.396l77.99,149.933c2.121,4.078,7.311,5.722,11.396,3.597l89.96-46.794
	C300.807,235.361,301.914,228.54,298.031,224.543z"/>
<path style="fill:#2DB59F;" d="M223.867,275.217c-4.086,2.125-9.275,0.482-11.396-3.597l-77.99-149.933
	c-1.887-3.627-0.799-8.12,2.324-10.568l-16.684,8.678c-4.08,2.122-5.722,7.312-3.597,11.396l77.99,149.933
	c2.121,4.078,7.31,5.722,11.396,3.597L223.867,275.217z"/>
<path style="fill:#74DBC9;" d="M509.247,184.089c-11.457-22.027-30.807-38.273-54.485-45.747
	c-23.678-7.474-48.849-5.28-70.874,6.178c-0.106,0.055-0.209,0.111-0.312,0.171L81.335,318.446l-36.812-38.198
	c-2.598-2.697-6.663-3.361-9.984-1.633L4.552,294.213c-4.14,2.154-5.75,7.256-3.597,11.396l39.732,76.382
	c10.417,20.026,34.638,28.322,55.119,18.897l130.148-59.323l69.949,134.473c2.124,4.084,7.307,5.724,11.396,3.597l44.979-23.396
	c3.31-1.722,5.1-5.412,4.401-9.078l-29.012-152.335l169.985-77.165c6.088-2.763,10.832-7.974,13.015-14.294
	C512.852,197.048,512.332,190.021,509.247,184.089z"/>
<path style="fill:#6AC8B7;" d="M312.804,468.133L242.855,333.66l-130.148,59.323c-20.479,9.426-44.702,1.13-55.119-18.897
	l-39.732-76.382c-2.154-4.141-0.543-9.242,3.597-11.396l-16.901,7.906c-4.14,2.154-5.75,7.256-3.597,11.396l39.732,76.382
	c10.417,20.026,34.638,28.322,55.119,18.897l130.148-59.323l69.949,134.473c2.124,4.084,7.307,5.724,11.396,3.597l13.437-6.989
	C317.538,472.787,314.355,471.116,312.804,468.133z"/>
<path style="fill:#D7D8D9;" d="M492.598,161.319c-10.268-10.297-23.053-18.14-36.972-22.684c-2.156-0.703-4.507-0.511-6.521,0.537
	l-46.021,23.938c-4.14,2.154-5.75,7.256-3.597,11.396l15.598,29.987c2.124,4.084,7.307,5.724,11.396,3.597l64.034-33.308
	c2.386-1.241,4.039-3.545,4.451-6.205C495.378,165.918,494.498,163.224,492.598,161.319z"/>
<g>
	<path style="fill:#2DB59F;" d="M374.744,214.883c-4.011,0-7.557-2.929-8.309-6.87c-0.692-3.624,1.13-7.376,4.403-9.079l14.994-7.8
		c4.143-2.155,9.242-0.543,11.396,3.597c2.154,4.141,0.543,9.242-3.597,11.396l-14.994,7.8
		C377.39,214.576,376.057,214.883,374.744,214.883z"/>
	<path style="fill:#2DB59F;" d="M329.763,238.28c-3.052,0-5.999-1.657-7.504-4.553c-2.154-4.141-0.543-9.242,3.597-11.396
		l14.994-7.8c4.142-2.156,9.243-0.543,11.396,3.597c2.154,4.141,0.543,9.242-3.597,11.396l-14.994,7.8
		C332.409,237.973,331.076,238.28,329.763,238.28z"/>
	<path style="fill:#2DB59F;" d="M284.784,261.677c-3.052,0-5.999-1.658-7.504-4.553c-2.154-4.14-0.543-9.242,3.598-11.396
		l14.994-7.798c4.141-2.155,9.242-0.543,11.396,3.598c2.154,4.14,0.543,9.242-3.598,11.396l-14.994,7.798
		C287.43,261.37,286.097,261.677,284.784,261.677z"/>
	<path style="fill:#2DB59F;" d="M239.804,285.073c-3.052,0-5.999-1.658-7.504-4.553c-2.154-4.14-0.543-9.242,3.598-11.396
		l14.994-7.798c4.14-2.155,9.242-0.544,11.396,3.598c2.154,4.14,0.543,9.242-3.598,11.396l-14.994,7.798
		C242.449,284.767,241.116,285.073,239.804,285.073z"/>
	<path style="fill:#2DB59F;" d="M194.824,308.471c-4.011,0-7.557-2.93-8.309-6.87c-0.692-3.624,1.13-7.376,4.403-9.078l14.994-7.798
		c4.141-2.156,9.242-0.543,11.396,3.598c2.154,4.14,0.543,9.242-3.598,11.396l-14.994,7.798
		C197.47,308.163,196.137,308.471,194.824,308.471z"/>
	<path style="fill:#2DB59F;" d="M149.844,331.868c-4.011,0-7.557-2.929-8.309-6.87c-0.692-3.624,1.13-7.376,4.403-9.079l14.994-7.8
		c4.142-2.156,9.243-0.543,11.396,3.597c2.154,4.141,0.543,9.242-3.597,11.396l-14.994,7.8
		C152.49,331.561,151.157,331.868,149.844,331.868z"/>
	<path style="fill:#2DB59F;" d="M104.864,355.265c-4.011,0-7.557-2.929-8.309-6.87c-0.692-3.624,1.13-7.376,4.403-9.079l14.994-7.8
		c4.143-2.155,9.242-0.543,11.396,3.597c2.154,4.141,0.543,9.242-3.597,11.396l-14.994,7.8
		C107.51,354.958,106.177,355.265,104.864,355.265z"/>
</g>
<path style="fill:#EBEBEC;" d="M207.032,458.805h-2.854c-4.81-10.101-15.145-16.9-26.723-16.9c-2.776,0-5.491,0.379-8.092,1.12
	c-5.682-10.868-17.001-18.02-29.934-18.02c-12.734,0-24.086,7.131-29.833,17.905c-2.665-0.664-5.416-1.005-8.192-1.005
	c-18.638,0-33.801,15.163-33.801,33.801s15.163,33.801,33.801,33.801H207.03c13.979,0,25.351-11.372,25.351-25.351
	S221.01,458.805,207.032,458.805z"/>
<path style="fill:#D7D8D9;" d="M209.144,501.056H103.517c-18.638,0-33.801-15.163-33.801-33.801c0-1.317,0.083-2.614,0.231-3.892
	c-1.506,3.827-2.344,7.988-2.344,12.343c0,18.638,15.163,33.801,33.801,33.801h105.628c13.363,0,24.337-10.395,25.278-23.522
	C228.358,494.855,219.464,501.056,209.144,501.056z"/>
<path style="fill:#EBEBEC;" d="M409.836,36.295h-2.854c-4.81-10.101-15.145-16.9-26.723-16.9c-2.776,0-5.491,0.379-8.092,1.12
	c-5.682-10.868-17.001-18.02-29.934-18.02c-12.734,0-24.086,7.131-29.833,17.905c-2.665-0.664-5.416-1.005-8.192-1.005
	c-18.638,0-33.801,15.163-33.801,33.801s15.163,33.801,33.801,33.801h105.628c13.979,0,25.351-11.372,25.351-25.351
	S423.815,36.295,409.836,36.295z"/>
<path style="fill:#D7D8D9;" d="M411.949,78.546H306.321c-18.638,0-33.801-15.163-33.801-33.801c0-1.317,0.083-2.614,0.231-3.892
	c-1.506,3.827-2.344,7.988-2.344,12.343c0,18.638,15.163,33.801,33.801,33.801h105.628c13.363,0,24.337-10.395,25.278-23.522
	C431.163,72.343,422.269,78.546,411.949,78.546z"/>
</svg>